<svg height="512" viewBox="0 0 192 192" width="512" xmlns="http://www.w3.org/2000/svg"><path d="m42.343 58.343a8 8 0 0 1 12.812 2.079l9.316 18.63 24.583-43.021a8 8 0 0 1 14.374 1l13.988 34.969h10.584a56 56 0 0 0 -112 0h12.687z"/><path d="m112 88a8 8 0 0 1 -7.428-5.029l-9.846-24.617-23.78 41.615a8 8 0 0 1 -6.946 4.031h-.223a8 8 0 0 1 -6.933-4.419l-11.035-22.076-8.152 8.152a8 8 0 0 1 -5.657 2.343h-13.668a56 56 0 0 0 107.336 0z"/><path d="m124.017 121.7a71.886 71.886 0 1 0 -12.31 10.318l58.636 58.636 11.314-11.314zm-52.017 14.3a64 64 0 1 1 64-64 64 64 0 0 1 -64 64z"/></svg>